<?xml version="1.0" encoding="utf-8"?>
<!-- Generator: Adobe Illustrator 24.0.2, SVG Export Plug-In . SVG Version: 6.00 Build 0)  -->
<svg version="1.1" id="Capa_1" xmlns="http://www.w3.org/2000/svg" xmlns:xlink="http://www.w3.org/1999/xlink" x="0px" y="0px"
	 viewBox="0 0 512 512" style="enable-background:new 0 0 512 512;" xml:space="preserve">
<style type="text/css">
	.st0{fill:#FFFFFF;}
</style>
<path class="st0" d="M437,75C388.7,26.6,324.4,0,256,0C187.6,0,123.3,26.6,75,75C26.6,123.3,0,187.6,0,256c0,68.4,26.6,132.7,75,181
	c48.4,48.4,112.6,75,181,75c68.4,0,132.7-26.6,181-75c48.4-48.4,75-112.6,75-181S485.4,123.3,437,75z M196.2,356.5
	c0,9.1-7.4,16.5-16.5,16.5h-32.7c-9.1,0-16.5-7.4-16.5-16.5v-201c0-9.1,7.4-16.5,16.5-16.5h32.7c9.1,0,16.5,7.4,16.5,16.5V356.5z
	 M401.4,365.5c0,4.7-2.6,9-6.7,11.3c-4.2,2.2-9.2,2-13.1-0.6L217.3,266.6c-3.6-2.4-5.7-6.4-5.7-10.6c0-4.3,2.1-8.3,5.7-10.6
	l164.2-109.5c2.1-1.4,4.6-2.1,7.1-2.1c2.1,0,4.1,0.5,6,1.5c4.2,2.2,6.7,6.6,6.7,11.3V365.5z"/>
</svg>
