<?xml version="1.0" encoding="utf-8"?>
<!-- Generator: Adobe Illustrator 24.0.2, SVG Export Plug-In . SVG Version: 6.00 Build 0)  -->
<svg version="1.1" id="Capa_1" xmlns="http://www.w3.org/2000/svg" xmlns:xlink="http://www.w3.org/1999/xlink" x="0px" y="0px"
	 viewBox="0 0 512 512" style="enable-background:new 0 0 512 512;" xml:space="preserve">
<style type="text/css">
	.st0{fill:#FFFFFF;}
</style>
<path class="st0" d="M437,75C388.7,26.6,324.4,0,256,0C187.6,0,123.3,26.6,75,75C26.6,123.3,0,187.6,0,256c0,68.4,26.6,132.7,75,181
	c48.4,48.4,112.6,75,181,75c68.4,0,132.7-26.6,181-75c48.4-48.4,75-112.6,75-181S485.4,123.3,437,75z M238.7,374
	c0,10.7-8.6,19.3-19.3,19.3H181c-10.7,0-19.3-8.6-19.3-19.3V138c0-10.7,8.6-19.3,19.3-19.3h38.4c10.7,0,19.3,8.6,19.3,19.3V374z
	 M350.3,374c0,10.7-8.6,19.3-19.3,19.3h-38.4c-10.7,0-19.3-8.6-19.3-19.3V138c0-10.7,8.6-19.3,19.3-19.3H331
	c10.7,0,19.3,8.6,19.3,19.3V374z"/>
</svg>
